<svg xmlns="http://www.w3.org/2000/svg" width="108" height="64" viewBox="0 0 108 64"><path fill="#fff" d="M105.3 4.3c.7-2.5 0-4.3-3.6-4.3h-11.8c-3 0-4.4 1.6-5.1 3.3 0 0-6 14.6-14.5 24.1-2.7 2.7-4 3.6-5.5 3.6-.7 0-1.9-.9-2-3.4v-23.3c0-3-.7-4.3-3.2-4.3h-18.5c-1.9 0-3 1.4-3 2.7 0 2.8 4.2 3.5 4.7 11.5v17.4c0 3.8-.7 4.5-2.2 4.5-4 0-13.7-14.7-19.5-31.5-1.1-3.3-2.3-4.6-5.3-4.6h-11.8c-3.3 0-4 1.6-4 3.3 0 3.1 4 18.6 18.6 39.1 9.7 14 23.5 21.6 36 21.6 7.5 0 8.4-1.7 8.2-4.6v-10.6c.2-3.4.9-4 3.3-4 1.7 0 4.7.9 11.7 7.6 8 8 9.3 11.6 13.8 11.6h11.8c3.4 0 5.1-1.7 4.1-5-1.1-3.3-4.9-8.1-9.9-13.8-2.7-3.2-6.9-6.7-8.1-8.5-1.7-2.2-1.2-3.2 0-5.2-.1-.1 14.3-20.3 15.8-27.2z"/></svg>